<svg xmlns="http://www.w3.org/2000/svg" width="1600" height="1000" viewBox="0 0 1600 1000" role="img" aria-label="">
  <defs>
    <radialGradient id="a" cx="68%" cy="28%" r="70%">
      <stop offset="0" stop-color="#fde68a"/>
      <stop offset=".35" stop-color="#fed7aa"/>
      <stop offset=".72" stop-color="#fff7ed"/>
      <stop offset="1" stop-color="#ffedd5"/>
    </radialGradient>
    <linearGradient id="b" x1="0" x2="1" y1="0" y2="1">
      <stop stop-color="#fb923c" stop-opacity=".22"/>
      <stop offset=".5" stop-color="#facc15" stop-opacity=".18"/>
      <stop offset="1" stop-color="#06b6d4" stop-opacity=".1"/>
    </linearGradient>
  </defs>
  <rect width="1600" height="1000" fill="url(#a)"/>
  <circle cx="1098" cy="264" r="164" fill="#f97316" opacity=".2"/>
  <path d="M-120 760c216-118 414-126 594-24 164 92 338 96 516 0 196-106 408-118 730-10v274H-120z" fill="#fffaf1" opacity=".62"/>
  <path d="M0 634c154-72 314-72 480 0s326 72 480 0 314-72 480 0 326 72 480 0" fill="none" stroke="#0891b2" stroke-opacity=".22" stroke-width="18" stroke-linecap="round"/>
  <path d="M0 708c154-72 314-72 480 0s326 72 480 0 314-72 480 0 326 72 480 0" fill="none" stroke="#f97316" stroke-opacity=".18" stroke-width="14" stroke-linecap="round"/>
  <rect width="1600" height="1000" fill="url(#b)"/>
</svg>
